<svg width="76" height="84" viewBox="0 0 76 84" fill="none" xmlns="http://www.w3.org/2000/svg">
<mask id="mask0_242_1531" style="mask-type:luminance" maskUnits="userSpaceOnUse" x="0" y="0" width="76" height="84">
<path d="M0 -7.62939e-06H76V83.8882H0V-7.62939e-06Z" fill="white"/>
</mask>
<g mask="url(#mask0_242_1531)">
<path d="M42.1155 12.6733C42.1155 15.0059 40.2244 16.8971 37.8917 16.8971C35.5586 16.8971 33.6675 15.0059 33.6675 12.6733C33.6675 10.3406 35.5586 8.44946 37.8917 8.44946C40.2244 8.44946 42.1155 10.3406 42.1155 12.6733Z" fill="#D4962A"/>
<path d="M29.4087 12.6733C29.4087 15.0059 27.5176 16.8971 25.1849 16.8971C22.8518 16.8971 20.9607 15.0059 20.9607 12.6733C20.9607 10.3406 22.8518 8.44946 25.1849 8.44946C27.5176 8.44946 29.4087 10.3406 29.4087 12.6733Z" fill="#D4962A"/>
<path d="M54.7813 12.6733C54.7813 15.0059 52.8902 16.8971 50.5575 16.8971C48.2244 16.8971 46.3333 15.0059 46.3333 12.6733C46.3333 10.3406 48.2244 8.44946 50.5575 8.44946C52.8902 8.44946 54.7813 10.3406 54.7813 12.6733Z" fill="#D4962A"/>
<path d="M42.1155 25.2982C42.1155 27.6309 40.2244 29.522 37.8917 29.522C35.5586 29.522 33.6675 27.6309 33.6675 25.2982C33.6675 22.9655 35.5586 21.0744 37.8917 21.0744C40.2244 21.0744 42.1155 22.9655 42.1155 25.2982Z" fill="#D4962A"/>
<path d="M29.4087 25.2982C29.4087 27.6309 27.5176 29.522 25.1849 29.522C22.8518 29.522 20.9607 27.6309 20.9607 25.2982C20.9607 22.9655 22.8518 21.0744 25.1849 21.0744C27.5176 21.0744 29.4087 22.9655 29.4087 25.2982Z" fill="#D4962A"/>
<path d="M50.5573 21.0742C48.2246 21.0742 46.3335 22.9653 46.3335 25.298C46.3335 27.6311 48.2246 29.5222 50.5573 29.5222C52.89 29.5222 54.7811 27.6311 54.7811 25.298C54.7811 22.9653 52.89 21.0742 50.5573 21.0742ZM50.5573 21.5122C52.6447 21.5122 54.343 23.2106 54.343 25.298C54.343 27.3858 52.6447 29.0842 50.5573 29.0842C48.4699 29.0842 46.7716 27.3858 46.7716 25.298C46.7716 23.2106 48.4699 21.5122 50.5573 21.5122Z" fill="#D4962A"/>
<path d="M37.8918 33.7516C35.5591 33.7516 33.668 35.6427 33.668 37.9754C33.668 40.3085 35.5591 42.1996 37.8918 42.1996C40.2245 42.1996 42.1156 40.3085 42.1156 37.9754C42.1156 35.6427 40.2245 33.7516 37.8918 33.7516ZM37.8918 34.1897C39.9791 34.1897 41.6775 35.888 41.6775 37.9754C41.6775 40.0632 39.9791 41.7616 37.8918 41.7616C35.8044 41.7616 34.106 40.0632 34.106 37.9754C34.106 35.888 35.8044 34.1897 37.8918 34.1897Z" fill="#D4962A"/>
<path d="M29.4087 37.9756C29.4087 40.3083 27.5176 42.1994 25.1849 42.1994C22.8518 42.1994 20.9607 40.3083 20.9607 37.9756C20.9607 35.6429 22.8518 33.7518 25.1849 33.7518C27.5176 33.7518 29.4087 35.6429 29.4087 37.9756Z" fill="#D4962A"/>
<path d="M50.5573 33.7516C48.2246 33.7516 46.3335 35.6427 46.3335 37.9754C46.3335 40.3085 48.2246 42.1996 50.5573 42.1996C52.89 42.1996 54.7811 40.3085 54.7811 37.9754C54.7811 35.6427 52.89 33.7516 50.5573 33.7516ZM50.5573 34.1897C52.6447 34.1897 54.343 35.888 54.343 37.9754C54.343 40.0632 52.6447 41.7616 50.5573 41.7616C48.4699 41.7616 46.7716 40.0632 46.7716 37.9754C46.7716 35.888 48.4699 34.1897 50.5573 34.1897Z" fill="#D4962A"/>
</g>
<path d="M9.02832 72.8981H10.4575V67.6327H9.02832V72.8981ZM9.63008 70.9048H13.0149V69.6261H9.63008V70.9048ZM9.63008 68.9115H13.3158V67.6327H9.63008V68.9115Z" fill="#434346"/>
<path d="M14.0078 72.8981H15.437V67.6327H14.0078V72.8981Z" fill="#434346"/>
<path d="M16.3547 72.8981H17.7839V67.6327H16.3547V72.8981ZM19.8148 72.8981H21.244V67.6327H19.8148V72.8981ZM16.8361 68.6783L19.8148 72.8981L20.4241 71.3711L17.7839 67.6327L16.8361 68.6783Z" fill="#434346"/>
<path d="M22.1616 72.8981H23.5908V67.6327H22.1616V72.8981ZM22.7634 70.9048H26.2235V69.6261H22.7634V70.9048ZM22.7634 68.9115H26.5243V67.6327H22.7634V68.9115ZM22.7634 72.8981H26.5996V71.6194H22.7634V72.8981Z" fill="#434346"/>
<path d="M29.488 72.8981H30.9172V67.6327H29.488V72.8981ZM30.0898 70.9048H33.4747V69.6261H30.0898V70.9048ZM30.0898 68.9115H33.7755V67.6327H30.0898V68.9115Z" fill="#434346"/>
<path d="M34.4675 72.8981H35.8967V67.6327H34.4675V72.8981Z" fill="#434346"/>
<path d="M36.8145 72.8981H38.2436V67.6327H36.8145V72.8981ZM40.2745 72.8981H41.7037V67.6327H40.2745V72.8981ZM37.2959 68.6783L40.2745 72.8981L40.8838 71.3711L38.2436 67.6327L37.2959 68.6783Z" fill="#434346"/>
<path d="M42.6211 72.8981H44.0503V67.6327H42.6211V72.8981Z" fill="#434346"/>
<path d="M46.8558 70.98C47.0364 71.0051 47.2094 71.0277 47.3748 71.0477C47.5403 71.0678 47.6857 71.0904 47.8111 71.1154C47.9415 71.1405 48.0443 71.1756 48.1195 71.2207C48.1947 71.2609 48.2323 71.3185 48.2323 71.3937C48.2323 71.5091 48.1596 71.5893 48.0142 71.6344C47.8738 71.6746 47.6582 71.6946 47.3673 71.6946C47.2119 71.6946 47.0614 71.6896 46.916 71.6796C46.7706 71.6695 46.6427 71.6495 46.5324 71.6194C46.4221 71.5843 46.3343 71.5367 46.2691 71.4765C46.2039 71.4113 46.1713 71.326 46.1713 71.2207H44.8174C44.8174 71.5517 44.8725 71.8325 44.9829 72.0632C45.0932 72.2888 45.2511 72.4719 45.4567 72.6123C45.6674 72.7527 45.9206 72.853 46.2165 72.9132C46.5173 72.9784 46.8533 73.011 47.2244 73.011C48.0769 73.011 48.7012 72.8781 49.0974 72.6123C49.4985 72.3465 49.6991 71.9153 49.6991 71.3185C49.6991 71.0176 49.6465 70.7644 49.5412 70.5588C49.4409 70.3532 49.2954 70.1827 49.1049 70.0473C48.9193 69.9119 48.6937 69.8066 48.4279 69.7314C48.1672 69.6512 47.8738 69.5885 47.5478 69.5433C47.3021 69.5082 47.0965 69.4807 46.931 69.4606C46.7706 69.4355 46.6427 69.413 46.5474 69.3929C46.4522 69.3678 46.3845 69.3377 46.3443 69.3026C46.3092 69.2675 46.2917 69.2224 46.2917 69.1672C46.2917 69.1121 46.3092 69.0644 46.3443 69.0243C46.3794 68.9792 46.4321 68.9441 46.5023 68.919C46.5725 68.8889 46.6578 68.8689 46.758 68.8588C46.8633 68.8438 46.9862 68.8363 47.1266 68.8363C47.2771 68.8363 47.4225 68.8413 47.5629 68.8513C47.7033 68.8614 47.8262 68.8839 47.9315 68.919C48.0368 68.9491 48.1195 68.9967 48.1797 69.0619C48.2449 69.1221 48.2775 69.2049 48.2775 69.3102H49.6314C49.6314 68.9792 49.5763 68.7009 49.4659 68.4752C49.3556 68.2446 49.1977 68.059 48.9921 67.9186C48.7915 67.7782 48.5432 67.6779 48.2474 67.6177C47.9565 67.5525 47.6281 67.5199 47.262 67.5199C46.4196 67.5199 45.8028 67.6553 45.4116 67.9261C45.0205 68.1969 44.8249 68.6482 44.8249 69.2801C44.8249 69.5609 44.8725 69.7991 44.9678 69.9947C45.0681 70.1902 45.2085 70.3557 45.3891 70.4911C45.5696 70.6215 45.7827 70.7243 46.0284 70.7995C46.2791 70.8747 46.555 70.9349 46.8558 70.98Z" fill="#434346"/>
<path d="M50.4668 72.8981H51.896V67.6327H50.4668V72.8981ZM53.9269 72.8981H55.3561V67.6327H53.9269V72.8981ZM51.0686 70.9048H54.6039V69.6261H51.0686V70.9048Z" fill="#434346"/>
<path d="M56.2737 72.8981H57.7028V67.6327H56.2737V72.8981ZM56.8754 70.9048H60.3355V69.6261H56.8754V70.9048ZM56.8754 68.9115H60.6364V67.6327H56.8754V68.9115ZM56.8754 72.8981H60.7116V71.6194H56.8754V72.8981Z" fill="#434346"/>
<path d="M63.3668 70.98C63.5473 71.0051 63.7203 71.0277 63.8858 71.0477C64.0513 71.0678 64.1967 71.0904 64.3221 71.1154C64.4525 71.1405 64.5553 71.1756 64.6305 71.2207C64.7057 71.2609 64.7433 71.3185 64.7433 71.3937C64.7433 71.5091 64.6706 71.5893 64.5252 71.6344C64.3848 71.6746 64.1692 71.6946 63.8783 71.6946C63.7229 71.6946 63.5724 71.6896 63.427 71.6796C63.2816 71.6695 63.1537 71.6495 63.0434 71.6194C62.933 71.5843 62.8453 71.5367 62.7801 71.4765C62.7149 71.4113 62.6823 71.326 62.6823 71.2207H61.3284C61.3284 71.5517 61.3835 71.8325 61.4939 72.0632C61.6042 72.2888 61.7621 72.4719 61.9677 72.6123C62.1783 72.7527 62.4316 72.853 62.7274 72.9132C63.0283 72.9784 63.3643 73.011 63.7354 73.011C64.5879 73.011 65.2122 72.8781 65.6084 72.6123C66.0095 72.3465 66.2101 71.9153 66.2101 71.3185C66.2101 71.0176 66.1575 70.7644 66.0521 70.5588C65.9519 70.3532 65.8064 70.1827 65.6159 70.0473C65.4303 69.9119 65.2047 69.8066 64.9389 69.7314C64.6781 69.6512 64.3848 69.5885 64.0588 69.5433C63.8131 69.5082 63.6075 69.4807 63.442 69.4606C63.2816 69.4355 63.1537 69.413 63.0584 69.3929C62.9631 69.3678 62.8954 69.3377 62.8553 69.3026C62.8202 69.2675 62.8027 69.2224 62.8027 69.1672C62.8027 69.1121 62.8202 69.0644 62.8553 69.0243C62.8904 68.9792 62.9431 68.9441 63.0133 68.919C63.0835 68.8889 63.1687 68.8689 63.269 68.8588C63.3743 68.8438 63.4972 68.8363 63.6376 68.8363C63.788 68.8363 63.9335 68.8413 64.0739 68.8513C64.2143 68.8614 64.3371 68.8839 64.4425 68.919C64.5478 68.9491 64.6305 68.9967 64.6907 69.0619C64.7559 69.1221 64.7885 69.2049 64.7885 69.3102H66.1424C66.1424 68.9792 66.0872 68.7009 65.9769 68.4752C65.8666 68.2446 65.7086 68.059 65.503 67.9186C65.3025 67.7782 65.0542 67.6779 64.7584 67.6177C64.4675 67.5525 64.1391 67.5199 63.773 67.5199C62.9305 67.5199 62.3137 67.6553 61.9226 67.9261C61.5315 68.1969 61.3359 68.6482 61.3359 69.2801C61.3359 69.5609 61.3835 69.7991 61.4788 69.9947C61.5791 70.1902 61.7195 70.3557 61.9 70.4911C62.0806 70.6215 62.2937 70.7243 62.5394 70.7995C62.7901 70.8747 63.0659 70.9349 63.3668 70.98Z" fill="#434346"/>
<mask id="mask1_242_1531" style="mask-type:luminance" maskUnits="userSpaceOnUse" x="0" y="0" width="76" height="84">
<path d="M0 -7.62939e-06H76V83.8882H0V-7.62939e-06Z" fill="white"/>
</mask>
<g mask="url(#mask1_242_1531)">
<path d="M21.8496 59.2597H16.3948V56.3374H25.1614V60.1753C25.1614 60.8508 25.054 61.4514 24.8398 61.9775C24.6256 62.5036 24.3334 62.9644 23.9633 63.3604C23.5931 63.7569 23.1577 64.0881 22.6578 64.354C22.158 64.6203 21.6222 64.838 21.0506 65.0067C20.4789 65.1758 19.8818 65.2989 19.2585 65.3768C18.6351 65.4548 18.0183 65.4938 17.4076 65.4938C15.8363 65.4938 14.4858 65.3602 13.3556 65.0943C12.2258 64.8284 11.3037 64.3965 10.5892 63.7989C9.87514 63.2019 9.34903 62.419 9.01128 61.4514C8.67354 60.4841 8.50488 59.2987 8.50488 57.896C8.50488 56.4807 8.67047 55.2887 9.00165 54.321C9.33282 53.3538 9.8493 52.5709 10.5502 51.9739C11.2515 51.3763 12.1408 50.9479 13.2193 50.6877C14.2974 50.4284 15.5827 50.2983 17.0765 50.2983C17.8426 50.2983 18.544 50.3307 19.1805 50.3955C19.8165 50.4608 20.4307 50.5646 21.0217 50.7074C21.6126 50.8502 22.197 51.0386 22.7748 51.2721C23.3526 51.506 23.9536 51.7921 24.577 52.1298L22.473 54.6815C21.8496 54.2658 21.1123 53.9346 20.2616 53.688C19.4109 53.4414 18.4143 53.3178 17.2714 53.3178C16.3751 53.3178 15.5989 53.3928 14.9435 53.5417C14.2873 53.6915 13.7516 53.9412 13.3363 54.2921C12.9201 54.6425 12.6122 55.11 12.4107 55.6948C12.2096 56.2791 12.1088 57.0129 12.1088 57.896C12.1088 58.766 12.2096 59.4967 12.4107 60.0877C12.6122 60.6786 12.9201 61.1495 13.3363 61.5C13.7516 61.8509 14.2873 62.101 14.9435 62.2499C15.5989 62.3993 16.3751 62.4742 17.2714 62.4742C17.8426 62.4742 18.4012 62.4388 18.947 62.3669C19.4924 62.2959 19.9795 62.1724 20.4079 61.9967C20.8364 61.8215 21.1837 61.5946 21.4501 61.3147C21.716 61.0356 21.8496 60.6887 21.8496 60.2725V59.2597Z" fill="#434346"/>
<path d="M38.1555 56.5129C38.5707 56.5129 38.9019 56.3994 39.149 56.1721C39.3956 55.9447 39.5191 55.5584 39.5191 55.013C39.5191 54.4672 39.3956 54.0812 39.149 53.8539C38.9019 53.6265 38.5707 53.5126 38.1555 53.5126H30.4604V56.5129H38.1555ZM27.1487 50.5907H38.3504C39.1945 50.5907 39.9051 50.6683 40.4833 50.8242C41.0611 50.9802 41.532 51.2334 41.8956 51.5843C42.2592 51.9347 42.5221 52.3925 42.6846 52.9576C42.8471 53.5227 42.9282 54.2078 42.9282 55.013C42.9282 55.805 42.8471 56.4836 42.6846 57.0487C42.5221 57.6138 42.2592 58.0715 41.8956 58.422C41.532 58.7724 41.0611 59.0291 40.4833 59.1917C39.9051 59.3542 39.1945 59.4352 38.3504 59.4352H36.7918L43.9024 65.2014H38.6426L32.1939 59.4352H30.4604V65.2014H27.1487V50.5907Z" fill="#434346"/>
<path d="M45.3049 50.5906H48.6167V65.2018H45.3049V50.5906Z" fill="#434346"/>
<path d="M61.4358 62.2793C61.7345 62.2793 62.0328 62.1886 62.332 62.0064C62.6304 61.8246 62.8998 61.5556 63.1403 61.1981C63.3808 60.8411 63.5753 60.3864 63.7246 59.8345C63.874 59.2825 63.9489 58.6363 63.9489 57.896C63.9489 57.1557 63.874 56.51 63.7246 55.9576C63.5753 55.4056 63.3808 54.9514 63.1403 54.5939C62.8998 54.2369 62.6304 53.9675 62.332 53.7857C62.0328 53.6039 61.7345 53.5128 61.4358 53.5128H54.3058V62.2793H61.4358ZM50.9937 50.5904H61.611C62.4551 50.5904 63.2283 50.7205 63.9292 50.9803C64.6306 51.2401 65.2346 51.6589 65.741 52.2367C66.2479 52.8149 66.6439 53.568 66.9295 54.4967C67.2151 55.4253 67.3579 56.5586 67.3579 57.896C67.3579 59.2207 67.2151 60.3479 66.9295 61.2761C66.6439 62.2048 66.2479 62.9613 65.741 63.5457C65.2346 64.1301 64.6306 64.5524 63.9292 64.8117C63.2283 65.0719 62.4551 65.2016 61.611 65.2016H50.9937V50.5904Z" fill="#434346"/>
</g>
</svg>
